# xmcd
#
# Track frame offsets: 
#        150
#        17442
#        31782
#        47852
#        61480
#        77992
#        96280
#        110702
#        124672
#        139520
#
# Disc length: 2041 seconds
#
# Revision: 0
# Processed by: cddbd v1.5.1PL2 Copyright (c) Steve Scherf et al.
# Submitted via: ExactAudioCopy v0.95b4
#
DISCID=8007f70a
DTITLE=สาธิกา  สุพรรษา - จริงใจให้ไปขอ
DYEAR=1900
DGENRE=Country
TTITLE0=คอยพี่ที่งานงิ้ว
TTITLE1=จริงใจให้ไปขอ
TTITLE2=ปลูกรักเตือนใจ
TTITLE3=สาวสามช่า
TTITLE4=ตัดคะแนนใจ
TTITLE5=คนดีศรีอยุธยา
TTITLE6=สาวผักให้มารัก
TTITLE7=ไม่รู้จะทำอะไร
TTITLE8=ได้ก็ดี
TTITLE9=ผู้ชายไก่แจ้
EXTD=
EXTT0=
EXTT1=
EXTT2=
EXTT3=
EXTT4=
EXTT5=
EXTT6=
EXTT7=
EXTT8=
EXTT9=
PLAYORDER=
